<svg xmlns="http://www.w3.org/2000/svg" viewBox="0 0 24 24" fill="#00A8E1">
  <path d="M.045 18.02c.072-.116.187-.124.348-.022 3.053 1.926 6.556 2.897 10.518 2.897 2.674 0 5.387-.538 8.14-1.614.089-.033.167-.024.232.022.095.065.111.136.032.227-1.053 1.15-2.79 2.067-5.215 2.751-2.425.684-4.846 1.021-7.263 1.021-3.024 0-5.626-.6-7.808-1.802-.083-.051-.118-.135-.099-.249a.213.213 0 0 1 .115-.161z"/>
  <path d="M6.016 14.674c0-.89.193-1.755.578-2.592.386-.837.92-1.491 1.606-1.963.707-.494 1.483-.739 2.329-.739.905 0 1.693.249 2.368.747.675.498 1.056 1.104 1.146 1.818a.25.25 0 0 1-.092.224.249.249 0 0 1-.224.053l-1.908-.423c-.16-.044-.276-.135-.346-.271-.22-.429-.582-.644-1.088-.644-.449 0-.838.231-1.169.694-.33.463-.496 1.113-.496 1.951 0 .902.17 1.606.508 2.114.339.507.76.761 1.262.761.525 0 .917-.234 1.174-.703.082-.15.206-.233.374-.249l1.971.182c.089.008.157.046.206.113a.273.273 0 0 1 .045.234c-.153.708-.513 1.271-1.082 1.688-.769.564-1.718.847-2.847.847-1.298 0-2.349-.445-3.152-1.334-.802-.889-1.204-2.068-1.204-3.537z"/>
</svg>
